<?xml version="1.0" encoding="UTF-8"?>
<svg version="1.1" xmlns="http://www.w3.org/2000/svg" width="28" height="21">
<path d="M0 0 C1 3 1 3 0.22265625 5.04296875 C-0.16019531 5.75066406 -0.54304688 6.45835938 -0.9375 7.1875 C-1.31777344 7.90292969 -1.69804687 8.61835938 -2.08984375 9.35546875 C-2.39019531 9.89816406 -2.69054688 10.44085938 -3 11 C-1.68 11 -0.36 11 1 11 C1 14.3 1 17.6 1 21 C-3.29 21 -7.58 21 -12 21 C-12.29313332 14.74648922 -12.15279968 9.54242166 -9 4 C-5.70720286 0.62277217 -4.80148514 0 0 0 Z " fill="#22263A" transform="translate(27,0)"/>
<path d="M0 0 C1.39195915 4.17587745 -0.17676781 6.13474776 -2 10 C-0.68 10.66 0.64 11.32 2 12 C2 14.97 2 17.94 2 21 C-2.29 21 -6.58 21 -11 21 C-11.80357143 8.00892857 -11.80357143 8.00892857 -8.125 3.75 C-5.41705437 1.10746369 -3.89357456 0 0 0 Z " fill="#23273B" transform="translate(11,0)"/>
</svg>
